 <svg  version="1.0" xmlns="http://www.w3.org/2000/svg"  width="153.000000pt" height="300.000000pt" viewBox="0 0 153.000000 300.000000"  preserveAspectRatio="xMidYMid meet">  <g transform="translate(0.000000,300.000000) scale(0.100000,-0.100000)" fill="#ff8000" stroke="none"> <path d="M749 2786 c-20 -19 -25 -34 -23 -57 3 -21 0 -28 -8 -23 -7 5 -9 2 -5 -9 3 -8 -1 -21 -9 -27 -8 -7 -14 -25 -14 -41 0 -16 -4 -29 -10 -29 -5 0 -10 -10 -10 -23 0 -34 -49 -73 -100 -82 -3 0 -14 -6 -25 -12 -11 -6 -35 -14 -52 -18 -18 -3 -33 -10 -33 -15 0 -4 -9 -6 -20 -3 -22 6 -28 -12 -7 -20 16 -6 226 49 244 65 7 5 16 26 19 47 9 46 39 117 54 126 7 5 9 21 5 45 -5 31 -2 43 14 59 28 28 57 26 77 -4 13 -19 14 -31 7 -48 -8 -17 -4 -32 18 -72 15 -27 31 -67 34 -88 12 -62 30 -75 151 -107 61 -15 128 -36 149 -44 46 -19 45 -19 45 -2 0 9 -15 17 -39 21 -29 5 -38 10 -34 21 3 8 2 14 -3 13 -16 -5 -94 13 -100 22 -3 5 -14 14 -26 20 -11 6 -18 7 -15 2 4 -6 -9 -5 -28 1 -19 6 -35 17 -35 23 0 7 -4 13 -10 13 -5 0 -15 20 -21 45 -6 25 -16 45 -21 45 -5 0 -7 4 -3 9 3 6 -4 26 -15 46 -11 19 -20 48 -20 63 0 41 -13 54 -61 59 -38 4 -48 1 -70 -21z"/> <path d="M780 2749 c-10 -17 -9 -24 3 -37 23 -22 49 -8 45 25 -4 35 -33 42 -48 12z"/> <path d="M773 2643 c-8 -3 -13 -25 -13 -61 0 -41 -3 -53 -10 -42 -6 9 -10 10 -10 3 0 -7 -10 -21 -22 -33 l-22 -20 76 0 c41 0 91 -3 109 -6 l34 -7 -22 22 c-13 12 -23 30 -23 41 0 10 -4 22 -10 25 -5 3 -10 -3 -10 -14 0 -24 -15 -28 -23 -7 -7 18 3 57 13 51 6 -4 7 16 1 48 -1 8 -49 8 -68 0z"/> <path d="M540 2424 c-170 -36 -211 -59 -252 -143 l-23 -46 0 -759 0 -759 37 -30 c45 -36 132 -52 349 -63 76 -4 139 -11 139 -15 0 -5 -9 -9 -20 -9 -18 0 -20 -7 -20 -61 0 -67 -19 -79 -31 -19 -9 43 -28 78 -47 85 -25 9 -62 -34 -62 -73 0 -51 -24 -34 -28 20 l-3 46 -52 5 c-29 3 -73 9 -99 13 l-48 7 0 -31 c0 -17 7 -38 16 -46 8 -9 12 -16 8 -16 -3 0 -1 -7 6 -14 20 -26 111 -50 171 -47 39 2 60 -2 71 -12 10 -10 19 -12 29 -6 8 5 79 10 159 10 231 2 242 3 298 23 47 16 57 24 73 60 30 67 27 79 -23 72 -24 -3 -74 -9 -113 -12 -38 -4 -73 -12 -77 -18 -5 -8 -8 -7 -8 2 0 6 -11 12 -25 12 -18 0 -25 -5 -25 -20 0 -11 -4 -20 -10 -20 -5 0 -10 -11 -10 -24 0 -28 -28 -43 -37 -19 -4 9 1 21 12 29 17 13 17 14 -1 21 -10 4 -28 16 -39 28 -11 12 -28 24 -37 28 -22 8 -23 25 -1 49 14 16 14 18 0 18 -8 0 -27 -15 -41 -32 -17 -21 -26 -27 -26 -17 0 8 11 26 25 39 23 22 25 30 25 114 l0 91 -52 -1 -53 -1 3 -54 c7 -110 -22 -161 -31 -54 l-3 50 -2 -58 c-1 -40 -6 -59 -17 -63 -13 -5 -13 -8 1 -21 16 -16 15 -48 -1 -47 -15 0 -23 49 -24 157 l-1 98 -32 -4 -32 -3 3 -81 c1 -49 -1 -83 -8 -87 -12 -8 -19 18 -24 84 -3 34 -4 29 -5 -20 -1 -42 4 -74 14 -90 12 -21 14 -22 12 -5 -3 16 2 20 26 18 38 -3 39 -5 21 -39 l-15 -29 0 28 c0 32 -16 36 -25 6 -6 -19 -8 -19 -19 -3 -12 16 -13 15 -20 -7 -6 -22 -7 -22 -17 -6 -6 9 -8 26 -4 36 10 32 -10 32 -43 -1 -21 -19 -32 -25 -32 -16 0 8 9 23 20 33 17 15 20 31 20 100 l0 81 -60 -4 c-69 -5 -133 5 -125 19 4 6 111 9 278 8 445 -2 779 -11 769 -21 -5 -5 -48 -8 -96 -6 l-86 3 0 -88 c0 -48 -4 -95 -9 -105 -5 -9 -12 -25 -15 -34 -8 -27 -26 -22 -26 7 0 30 -17 33 -23 5 -4 -17 -4 -16 -3 2 1 17 8 24 29 26 15 2 27 8 27 14 0 6 -12 8 -27 5 -48 -9 -53 -1 -53 89 0 77 -2 84 -20 84 -18 0 -20 -7 -21 -57 -1 -32 -2 -75 -3 -96 -2 -26 1 -36 9 -33 16 6 35 -13 35 -33 0 -13 -2 -14 -9 -2 -10 16 -31 6 -31 -15 0 -8 -6 -14 -14 -14 -10 0 -16 21 -22 73 -6 47 -10 61 -12 40 -2 -22 -13 -39 -32 -53 -15 -11 -31 -32 -35 -47 l-7 -28 -9 23 c-10 27 -29 20 -29 -10 0 -20 3 -20 113 -14 266 16 354 38 385 96 10 20 12 167 9 765 -4 721 -4 741 -24 785 -39 85 -91 119 -219 144 -209 41 -399 45 -564 10z m285 -24 c4 -6 -8 -10 -29 -10 -20 0 -36 5 -36 10 0 6 13 10 29 10 17 0 33 -4 36 -10z m-88 -26 c3 -8 -26 -14 -84 -20 l-88 -8 55 -6 c41 -4 50 -8 35 -14 -11 -4 -27 -11 -36 -16 -9 -5 -27 -6 -39 -3 -15 4 -21 2 -16 -5 3 -6 2 -13 -4 -17 -5 -3 -10 -2 -10 3 0 10 -41 4 -50 -7 -14 -17 -72 -41 -82 -35 -6 4 -8 3 -5 -3 4 -6 -2 -18 -13 -28 -11 -10 -20 -23 -20 -30 0 -6 -8 -20 -17 -31 -22 -23 -39 -60 -47 -96 -4 -16 -11 -28 -16 -28 -13 0 -5 207 9 224 5 6 13 27 18 46 7 26 15 35 30 34 12 0 19 5 16 11 -5 15 40 26 136 31 41 3 77 7 80 10 10 10 144 -1 148 -12z m300 7 c28 -4 61 -3 73 1 27 10 41 1 20 -12 -11 -7 -3 -10 25 -10 22 0 51 -7 63 -16 13 -9 26 -13 29 -10 12 11 39 -50 57 -127 15 -61 17 -89 9 -130 l-9 -52 -13 30 c-7 17 -25 57 -39 90 -48 110 -113 159 -231 171 -34 4 -58 11 -55 16 4 5 16 7 28 4 11 -3 27 -1 35 3 8 5 -22 11 -78 16 -85 7 -101 12 -84 28 8 9 103 8 170 -2z m-169 -67 c15 -18 22 -38 22 -68 0 -96 -122 -129 -168 -45 l-17 31 -75 -7 c-104 -8 -142 -20 -174 -54 -50 -53 -37 -58 156 -66 186 -8 553 -4 562 6 8 8 -20 62 -42 82 -29 26 -83 45 -154 52 -38 4 -68 11 -68 16 0 14 112 10 166 -6 56 -16 86 -43 108 -97 9 -20 20 -39 26 -43 13 -8 13 -81 0 -106 -10 -18 -7 -19 49 -19 33 0 63 -4 66 -10 4 -7 -173 -10 -525 -10 -352 0 -529 3 -525 10 3 6 33 10 65 10 l59 0 -10 32 c-5 18 -9 48 -9 66 0 27 3 32 18 28 13 -5 17 1 18 24 2 64 57 96 192 111 95 11 99 12 109 40 13 34 66 61 103 53 14 -2 35 -16 48 -30z m152 -114 c54 -10 94 -35 84 -51 -8 -13 -204 -11 -204 1 0 21 33 60 50 60 9 0 41 -5 70 -10z m-339 -20 c10 -6 19 -17 19 -25 0 -12 -15 -14 -92 -8 -51 3 -95 7 -97 9 -9 8 9 16 56 24 70 11 92 11 114 0z m-296 -279 c5 -28 11 -38 23 -37 12 1 18 -8 20 -26 2 -21 -1 -28 -13 -28 -9 0 -19 9 -22 20 -3 11 -9 18 -13 15 -7 -4 -20 51 -20 88 0 32 18 8 25 -32z m-67 -371 c-1 -212 -3 -429 -3 -483 0 -71 -3 -97 -12 -97 -10 0 -13 78 -13 358 0 392 8 614 22 610 6 -2 8 -162 6 -388z m992 -102 c0 -489 -1 -493 -20 -468 -10 14 -17 34 -15 45 13 71 14 85 2 85 -6 0 -3 7 7 15 14 11 16 18 8 28 -7 8 -11 127 -12 367 -1 195 0 360 1 365 1 6 1 14 0 19 -3 15 8 36 19 36 7 0 10 -161 10 -492z m-690 467 c17 -21 5 -45 -24 -45 -29 0 -40 24 -20 45 19 19 28 19 44 0z m65 6 c3 -5 1 -13 -5 -16 -15 -9 -43 3 -35 15 8 13 32 13 40 1z m199 3 c24 -9 19 -43 -6 -53 -13 -5 -26 -7 -30 -4 -12 7 -9 38 4 51 14 14 12 14 32 6z m210 -3 c7 -11 -20 -22 -38 -15 -9 3 -17 -3 -21 -16 -9 -29 -60 -25 -60 5 0 16 7 20 32 21 18 0 36 3 39 7 10 10 42 9 48 -2z m136 -27 c0 -13 -4 -24 -10 -24 -5 0 -10 -7 -10 -15 0 -21 -30 -31 -40 -14 -12 18 8 52 26 45 8 -3 14 -2 14 3 0 5 -9 11 -21 14 -29 8 -15 25 16 19 18 -3 25 -11 25 -28z m-740 7 c0 -30 -25 -45 -44 -26 -20 21 -10 45 20 45 17 0 24 -6 24 -19z m264 -3 c7 -29 -3 -38 -31 -27 -32 12 -31 49 1 49 16 0 26 -7 30 -22z m64 5 c-5 -26 -38 -29 -38 -4 0 15 6 21 21 21 14 0 19 -5 17 -17z m342 -2 c0 -30 -25 -45 -44 -26 -20 21 -10 45 20 45 17 0 24 -6 24 -19z m-605 -41 c0 -28 -27 -39 -50 -20 -21 18 -1 52 28 48 16 -2 22 -10 22 -28z m134 16 c16 -20 3 -46 -24 -46 -13 0 -26 7 -29 16 -7 19 10 44 29 44 7 0 18 -6 24 -14z m270 0 c15 -18 4 -46 -19 -46 -28 0 -45 27 -30 45 16 19 34 19 49 1z m129 5 c21 -13 10 -46 -16 -49 -27 -4 -40 22 -22 43 14 17 20 18 38 6z m-258 -31 c-12 -23 -42 -26 -59 -6 -10 12 -7 15 16 19 55 8 54 8 43 -13z m-440 -28 c0 -9 -5 -24 -10 -32 -7 -11 -10 -5 -10 23 0 23 4 36 10 32 6 -3 10 -14 10 -23z m95 -2 c0 -16 -6 -26 -18 -28 -19 -4 -32 20 -23 44 9 25 41 13 41 -16z m133 18 c18 -18 14 -36 -9 -43 -30 -10 -57 18 -39 39 15 19 32 20 48 4z m137 -18 c0 -20 -5 -25 -25 -25 -28 0 -41 32 -18 46 23 15 43 5 43 -21z m135 15 c10 -12 10 -18 0 -30 -7 -8 -18 -15 -25 -15 -7 0 -18 7 -25 15 -10 12 -10 18 0 30 7 8 18 15 25 15 7 0 18 -7 25 -15z m140 -1 c11 -12 11 -18 -2 -31 -20 -19 -58 -9 -58 17 0 30 40 40 60 14z m125 -14 c0 -16 -6 -26 -18 -28 -19 -4 -32 20 -23 44 9 25 41 13 41 -16z m-727 -37 c-2 -20 -8 -28 -20 -27 -11 1 -18 -5 -18 -17 0 -10 -4 -21 -10 -24 -6 -4 -10 7 -10 24 0 17 4 31 9 31 5 0 11 9 14 20 3 11 13 20 22 20 12 0 15 -7 13 -27z m127 -3 c0 -18 -6 -26 -23 -28 -13 -2 -25 3 -28 12 -10 26 4 48 28 44 17 -2 23 -10 23 -28z m139 14 c7 -19 -10 -44 -29 -44 -19 0 -36 25 -29 44 3 9 16 16 29 16 13 0 26 -7 29 -16z m131 -14 c0 -18 -6 -26 -23 -28 -24 -4 -38 18 -28 44 3 9 15 14 28 12 17 -2 23 -10 23 -28z m135 15 c10 -12 10 -18 0 -30 -7 -8 -18 -15 -25 -15 -19 0 -36 25 -29 44 8 20 38 21 54 1z m135 -15 c0 -18 -6 -26 -23 -28 -24 -4 -38 18 -28 44 3 9 15 14 28 12 17 -2 23 -10 23 -28z m112 10 c3 -11 9 -20 14 -20 5 0 9 -11 9 -25 0 -14 -4 -25 -10 -25 -5 0 -10 -7 -10 -16 0 -8 5 -12 10 -9 6 4 10 -18 10 -59 0 -37 -4 -66 -10 -66 -5 0 -10 9 -10 19 0 12 -7 18 -17 17 -13 -1 -19 8 -21 28 -3 25 -1 28 17 23 14 -3 21 0 21 9 0 8 -9 14 -21 14 -16 0 -20 5 -17 28 2 19 8 27 21 26 9 -1 17 4 17 12 0 7 -6 11 -14 8 -16 -6 -36 24 -29 44 7 19 34 14 40 -8z m-719 -54 c-2 -13 -10 -21 -23 -21 -23 0 -32 30 -14 51 16 19 41 -1 37 -30z m142 10 c0 -20 -27 -39 -45 -32 -18 7 -20 52 -2 59 17 6 47 -11 47 -27z m270 1 c0 -17 -20 -37 -37 -37 -7 0 -17 9 -23 19 -14 28 13 55 41 41 10 -6 19 -16 19 -23z m134 8 c7 -20 -18 -49 -38 -42 -25 10 -32 38 -12 53 20 14 42 9 50 -11z m-276 -9 c5 -25 -12 -39 -37 -31 -20 6 -28 34 -14 49 13 13 48 1 51 -18z m397 -6 c0 -16 -6 -26 -18 -28 -19 -4 -32 20 -23 44 9 25 41 13 41 -16z m-725 -37 c0 -20 -4 -24 -20 -20 -15 4 -20 0 -20 -13 0 -11 7 -17 18 -16 12 1 17 -6 17 -23 0 -31 -25 -40 -32 -12 -3 12 -9 21 -14 21 -17 0 -9 50 13 75 25 28 38 24 38 -12z m118 25 c18 -18 15 -36 -7 -48 -28 -14 -55 13 -41 41 12 22 30 25 48 7z m142 -7 c7 -15 6 -24 -6 -36 -19 -18 -33 -16 -48 7 -7 12 -6 21 3 32 18 22 38 20 51 -3z m124 13 c20 -8 21 -38 2 -53 -7 -6 -21 -9 -30 -5 -19 7 -22 50 -3 57 6 3 13 6 14 6 1 1 8 -2 17 -5z m137 -4 c24 -14 24 -36 0 -50 -28 -14 -55 13 -41 41 12 22 15 23 41 9z m133 4 c20 -8 21 -38 1 -54 -29 -24 -60 21 -33 48 14 14 12 14 32 6z m-599 -64 c0 -16 -6 -26 -18 -28 -19 -4 -32 20 -23 44 9 25 41 13 41 -16z m134 16 c15 -18 3 -46 -20 -46 -22 0 -34 22 -25 45 7 19 30 19 45 1z m136 -16 c0 -18 -6 -26 -23 -28 -24 -4 -38 18 -28 44 3 9 15 14 28 12 17 -2 23 -10 23 -28z m139 15 c9 -24 -4 -45 -29 -45 -27 0 -36 17 -23 43 11 21 44 23 52 2z m134 -18 c3 -23 0 -27 -23 -27 -30 0 -43 24 -25 46 19 22 45 13 48 -19z m127 3 c0 -18 -6 -26 -22 -28 -18 -3 -23 1 -23 21 0 28 9 39 30 35 9 -2 15 -14 15 -28z m-600 -30 c8 -26 -1 -40 -26 -40 -22 0 -34 22 -25 45 8 22 44 18 51 -5z m135 5 c10 -12 10 -18 0 -30 -7 -8 -18 -15 -25 -15 -19 0 -36 25 -29 44 8 20 38 21 54 1z m135 -15 c0 -18 -6 -26 -23 -28 -13 -2 -25 3 -28 12 -10 26 4 48 28 44 17 -2 23 -10 23 -28z m135 15 c10 -12 10 -18 0 -30 -17 -20 -37 -19 -48 3 -19 37 21 60 48 27z m135 -15 c0 -16 -6 -26 -19 -28 -25 -5 -39 12 -31 38 10 31 50 24 50 -10z m-610 -40 c0 -38 -39 -35 -43 3 -3 25 0 28 20 25 17 -2 23 -9 23 -28z m139 14 c7 -19 -10 -44 -29 -44 -19 0 -36 25 -29 44 3 9 16 16 29 16 13 0 26 -7 29 -16z m134 -8 c5 -25 -12 -39 -37 -31 -20 6 -28 34 -14 49 13 13 48 1 51 -18z m138 9 c7 -18 -13 -45 -33 -45 -17 0 -27 24 -19 45 7 20 45 19 52 0z m137 -4 c5 -21 -9 -41 -29 -41 -18 0 -37 28 -30 45 8 22 53 19 59 -4z m125 -7 c4 -29 -28 -41 -45 -18 -10 13 -10 21 -1 31 16 19 42 12 46 -13z m-730 -41 c-4 -33 -24 -41 -33 -14 -8 25 1 41 21 41 11 0 14 -8 12 -27z m127 2 c0 -23 -43 -34 -55 -14 -14 21 1 40 29 37 18 -2 26 -9 26 -23z m139 9 c9 -22 -1 -34 -29 -34 -13 0 -26 4 -29 9 -11 17 6 41 29 41 13 0 26 -7 29 -16z m131 -9 c0 -14 -8 -21 -27 -23 -22 -3 -28 1 -28 16 0 25 10 33 35 30 12 -2 20 -10 20 -23z m140 0 c0 -13 -8 -21 -24 -23 -28 -4 -46 11 -37 33 9 25 61 16 61 -10z m133 -2 c3 -19 -1 -23 -22 -23 -28 0 -41 14 -32 36 9 24 50 13 54 -13z m109 7 c3 -11 9 -20 14 -20 14 0 11 -48 -3 -54 -10 -5 -10 -7 0 -12 6 -3 12 -19 12 -35 0 -18 -4 -28 -10 -24 -5 3 -10 14 -10 25 0 13 -5 17 -21 13 -18 -5 -20 -2 -17 23 2 20 8 29 21 28 9 -1 17 4 17 12 0 8 -9 14 -19 14 -21 0 -31 17 -23 38 7 19 33 14 39 -8z m-817 -45 c0 -13 -4 -27 -10 -30 -6 -4 -10 8 -10 30 0 22 4 34 10 30 6 -3 10 -17 10 -30z m90 20 c16 -20 5 -45 -20 -45 -14 0 -20 7 -20 23 0 38 18 48 40 22z m138 3 c16 -16 15 -23 -3 -42 -17 -17 -40 -12 -49 9 -5 14 18 45 33 45 4 0 12 -5 19 -12z m126 6 c9 -3 16 -17 16 -30 0 -19 -5 -24 -25 -24 -30 0 -43 24 -25 45 14 17 13 17 34 9z m150 -18 c9 -13 7 -20 -7 -31 -35 -25 -70 10 -40 40 18 18 32 16 47 -9z m134 12 c16 -16 15 -23 -4 -42 -12 -12 -20 -13 -35 -6 -10 6 -19 16 -19 23 0 16 20 37 35 37 6 0 16 -5 23 -12z m132 -17 c0 -23 -19 -41 -36 -34 -17 6 -18 50 -1 56 19 7 37 -4 37 -22z m-732 -46 c3 -24 1 -27 -17 -22 -16 4 -21 0 -21 -13 0 -13 5 -17 20 -13 16 4 20 0 20 -20 0 -27 -21 -49 -28 -29 -2 7 -10 19 -18 26 -16 16 -19 66 -5 66 5 0 13 9 16 21 9 28 29 19 33 -16z m122 20 c16 -19 6 -45 -18 -45 -28 0 -43 20 -31 42 12 22 32 23 49 3z m138 -2 c13 -26 4 -43 -23 -43 -27 0 -40 26 -24 46 16 19 37 17 47 -3z m137 -13 c0 -18 -6 -26 -23 -28 -24 -4 -38 18 -28 44 3 9 15 14 28 12 17 -2 23 -10 23 -28z m134 16 c16 -20 3 -46 -24 -46 -13 0 -26 7 -29 16 -7 19 10 44 29 44 7 0 18 -6 24 -14z m136 -16 c0 -18 -6 -26 -23 -28 -24 -4 -38 18 -28 44 3 9 15 14 28 12 17 -2 23 -10 23 -28z m-610 -40 c0 -16 -6 -26 -18 -28 -19 -4 -32 20 -23 44 9 25 41 13 41 -16z m135 15 c10 -12 10 -18 0 -30 -25 -30 -61 -7 -46 30 3 8 12 15 19 15 8 0 20 -7 27 -15z m135 -15 c0 -16 -6 -26 -19 -28 -25 -5 -39 12 -31 38 10 31 50 24 50 -10z m139 15 c8 -22 -4 -45 -24 -45 -10 0 -23 7 -30 15 -15 18 2 45 30 45 10 0 20 -7 24 -15z m131 -15 c0 -16 -6 -26 -19 -28 -25 -5 -39 12 -31 38 10 31 50 24 50 -10z m130 0 c0 -16 -6 -26 -18 -28 -19 -4 -32 20 -23 44 9 25 41 13 41 -16z m55 -37 c0 -8 5 -11 10 -8 6 4 10 -7 10 -25 0 -18 -4 -29 -10 -25 -5 3 -10 12 -10 19 0 8 -8 13 -17 12 -19 -1 -28 26 -19 51 5 12 9 13 21 3 8 -7 15 -19 15 -27z m-654 12 c7 -18 -13 -45 -33 -45 -17 0 -27 24 -19 45 7 20 45 19 52 0z m132 3 c14 -14 -2 -48 -22 -48 -20 0 -39 27 -32 45 6 18 37 20 54 3z m137 -18 c0 -18 -6 -26 -23 -28 -24 -4 -38 18 -28 44 3 9 15 14 28 12 17 -2 23 -10 23 -28z m139 14 c7 -19 -10 -44 -30 -44 -16 0 -33 30 -27 48 7 18 50 15 57 -4z m131 -14 c0 -18 -6 -26 -23 -28 -24 -4 -38 18 -28 44 3 9 15 14 28 12 17 -2 23 -10 23 -28z m-705 -36 c0 -13 -4 -24 -10 -24 -5 0 -10 14 -10 31 0 17 4 28 10 24 6 -3 10 -17 10 -31z m94 14 c7 -12 6 -21 -3 -32 -17 -20 -41 -9 -41 18 0 39 23 46 44 14z m134 10 c18 -18 15 -36 -10 -49 -18 -9 -24 -8 -34 6 -25 34 15 72 44 43z m130 0 c17 -17 15 -45 -4 -52 -18 -7 -44 10 -44 28 0 13 20 36 30 36 3 0 11 -5 18 -12z m146 -12 c9 -13 7 -20 -7 -31 -35 -25 -70 10 -40 40 18 18 32 16 47 -9z m136 5 c14 -28 -13 -55 -41 -41 -22 12 -25 30 -7 48 18 18 36 15 48 -7z m128 -8 c5 -31 -22 -48 -42 -27 -16 15 -16 18 0 35 21 23 38 20 42 -8z m-730 -46 c2 -19 -1 -27 -12 -27 -20 0 -29 16 -21 41 9 27 29 19 33 -14z m532 18 c18 -21 5 -45 -25 -45 -14 0 -28 7 -31 15 -7 17 12 45 31 45 7 0 18 -7 25 -15z m-402 -17 c-2 -17 -10 -23 -28 -23 -18 0 -26 6 -28 23 -3 19 1 22 28 22 27 0 31 -3 28 -22z m136 13 c11 -17 -6 -41 -29 -41 -27 0 -39 14 -31 35 6 16 51 20 60 6z m134 -13 c-2 -17 -10 -23 -28 -23 -18 0 -26 6 -28 23 -3 19 1 22 28 22 27 0 31 -3 28 -22z m270 0 c-3 -25 -34 -36 -50 -20 -17 17 -1 42 27 42 22 0 26 -4 23 -22z m112 2 c0 -24 -29 -38 -40 -20 -12 19 -1 40 21 40 12 0 19 -7 19 -20z m-732 -19 c19 -11 11 -45 -11 -49 -19 -4 -32 20 -23 43 6 17 15 19 34 6z m142 -6 c10 -12 10 -18 0 -30 -7 -8 -18 -15 -25 -15 -7 0 -18 7 -25 15 -10 12 -10 18 0 30 7 8 18 15 25 15 7 0 18 -7 25 -15z m135 -15 c0 -20 -5 -25 -25 -25 -28 0 -41 32 -18 46 23 15 43 5 43 -21z m135 15 c17 -20 5 -45 -20 -45 -23 0 -35 22 -26 45 7 19 30 19 46 0z m140 0 c16 -19 -3 -45 -32 -45 -24 0 -34 26 -18 45 16 19 34 19 50 0z m125 -15 c0 -16 -6 -26 -18 -28 -19 -4 -32 20 -23 44 9 25 41 13 41 -16z m63 -32 c-10 -7 -10 -11 0 -15 14 -6 17 -53 2 -53 -5 0 -10 -7 -10 -16 0 -8 5 -12 10 -9 6 4 10 -26 10 -83 l0 -89 -29 -1 c-31 -1 -45 17 -35 43 7 18 25 19 43 3 11 -11 13 -10 7 5 -3 10 -6 22 -6 27 0 4 -8 7 -17 6 -13 -1 -19 8 -21 28 -3 25 -1 28 17 23 13 -3 21 0 21 8 0 7 -8 12 -17 11 -14 -1 -18 7 -18 29 0 22 4 30 18 29 9 -1 17 4 17 11 0 8 -8 11 -20 8 -17 -5 -20 0 -20 27 0 27 3 32 20 27 14 -4 20 0 20 12 0 30 15 34 18 6 2 -16 -2 -32 -10 -37z m-790 -5 c-2 -20 -8 -28 -20 -27 -11 1 -18 -5 -18 -17 0 -10 -4 -21 -10 -24 -6 -4 -10 7 -10 24 0 17 4 31 9 31 5 0 11 9 14 20 3 11 13 20 22 20 12 0 15 -7 13 -27z m127 -3 c0 -18 -6 -26 -23 -28 -24 -4 -38 18 -28 44 3 9 15 14 28 12 17 -2 23 -10 23 -28z m135 15 c10 -12 10 -18 0 -30 -26 -32 -68 -8 -54 30 4 8 14 15 24 15 10 0 23 -7 30 -15z m135 -15 c0 -18 -6 -26 -23 -28 -24 -4 -38 18 -28 44 3 9 15 14 28 12 17 -2 23 -10 23 -28z m139 14 c7 -19 -10 -44 -29 -44 -19 0 -36 25 -29 44 3 9 16 16 29 16 13 0 26 -7 29 -16z m134 -8 c5 -25 -12 -39 -37 -31 -20 6 -28 34 -14 49 13 13 48 1 51 -18z m-613 -46 c0 -16 -6 -26 -18 -28 -19 -4 -32 20 -23 44 9 25 41 13 41 -16z m139 13 c8 -21 -17 -48 -38 -40 -9 4 -16 18 -16 32 0 20 5 25 24 25 13 0 27 -8 30 -17z m134 -11 c4 -28 -24 -40 -45 -19 -21 21 -9 49 19 45 15 -2 24 -11 26 -26z m137 4 c0 -10 -8 -24 -18 -30 -14 -9 -21 -7 -32 7 -19 27 -8 49 24 45 18 -2 26 -9 26 -22z m138 12 c6 -18 -11 -48 -27 -48 -20 0 -39 27 -32 45 7 18 52 20 59 3z m122 -18 c0 -16 -6 -26 -18 -28 -19 -4 -32 20 -23 44 9 25 41 13 41 -16z m-727 -41 c-2 -16 -9 -23 -20 -21 -10 2 -18 -3 -18 -11 0 -8 8 -14 18 -13 12 1 17 -6 17 -23 0 -31 -25 -40 -32 -12 -3 12 -9 21 -14 21 -18 0 -9 54 13 77 25 26 41 18 36 -18z m126 19 c13 -22 -8 -48 -34 -41 -26 7 -32 29 -13 48 18 18 32 16 47 -7z m136 3 c7 -15 6 -23 -6 -35 -12 -12 -20 -13 -35 -6 -22 12 -23 15 -9 41 14 24 36 24 50 0z m134 -4 c8 -12 7 -21 -5 -32 -21 -21 -49 -9 -49 20 0 36 34 44 54 12z m146 -12 c0 -25 -36 -37 -54 -19 -9 8 -16 17 -16 19 0 2 7 11 16 19 18 18 54 6 54 -19z m114 29 c21 -8 21 -50 0 -58 -32 -12 -57 27 -32 52 14 14 12 14 32 6z m-599 -64 c0 -16 -6 -26 -18 -28 -19 -4 -32 20 -23 44 9 25 41 13 41 -16z m135 15 c17 -20 5 -45 -20 -45 -23 0 -35 22 -26 45 7 19 30 19 46 0z m138 -18 c3 -23 0 -27 -23 -27 -30 0 -43 24 -25 46 19 22 45 13 48 -19z m132 18 c16 -19 6 -45 -18 -45 -28 0 -43 20 -31 42 12 22 32 23 49 3z m138 -2 c13 -26 4 -43 -24 -43 -29 0 -41 24 -24 45 17 20 37 19 48 -2z m127 -13 c0 -29 -32 -41 -41 -16 -9 24 4 48 23 44 12 -2 18 -12 18 -28z m-600 -20 c11 -18 -6 -50 -26 -50 -22 0 -34 22 -25 45 6 17 42 20 51 5z m135 -5 c10 -12 10 -18 0 -30 -26 -32 -68 -8 -54 30 4 8 14 15 24 15 10 0 23 -7 30 -15z m135 -15 c0 -18 -6 -26 -23 -28 -24 -4 -38 18 -28 44 3 9 15 14 28 12 17 -2 23 -10 23 -28z m135 15 c10 -12 10 -18 0 -30 -7 -8 -18 -15 -25 -15 -7 0 -18 7 -25 15 -10 12 -10 18 0 30 7 8 18 15 25 15 7 0 18 -7 25 -15z m135 -15 c0 -16 -6 -26 -19 -28 -25 -5 -39 12 -31 38 10 31 50 24 50 -10z m-709 -59 c-4 -28 -4 -31 4 -13 14 33 42 29 38 -5 -2 -22 -9 -29 -30 -31 -27 -3 -28 -2 -28 48 0 34 4 49 11 44 6 -4 8 -21 5 -43z m99 19 c0 -38 -39 -35 -43 3 -3 25 0 28 20 25 17 -2 23 -9 23 -28z m139 14 c6 -16 -9 -44 -23 -44 -19 0 -42 27 -35 43 8 22 50 22 58 1z m135 -3 c13 -24 -9 -45 -39 -36 -19 6 -27 34 -13 48 13 14 42 7 52 -12z m139 -8 c4 -28 -34 -42 -56 -20 -13 13 -13 19 -2 32 18 22 54 15 58 -12z m132 12 c10 -12 10 -18 0 -30 -7 -8 -18 -15 -25 -15 -19 0 -38 28 -31 45 7 19 40 19 56 0z m125 -15 c0 -29 -32 -41 -41 -16 -9 24 4 48 23 44 12 -2 18 -12 18 -28z m-600 -34 c0 -10 -8 -24 -18 -30 -24 -15 -53 19 -35 41 16 20 53 12 53 -11z m140 0 c0 -30 -31 -44 -51 -24 -24 24 -11 50 23 46 20 -2 28 -9 28 -22z m269 8 c7 -19 -10 -44 -29 -44 -19 0 -36 25 -29 44 3 9 16 16 29 16 13 0 26 -7 29 -16z m134 -8 c5 -25 -12 -39 -37 -31 -20 6 -28 34 -14 49 13 13 48 1 51 -18z m-281 -2 c3 -8 -1 -22 -9 -30 -13 -13 -16 -13 -28 0 -10 13 -10 19 0 31 16 19 29 19 37 -1z m-343 -10 c25 -9 19 -24 -9 -24 -24 0 -32 10 -18 23 8 8 8 8 27 1z m150 -9 c4 -12 -3 -15 -31 -15 -30 0 -34 2 -23 15 7 8 20 15 30 15 10 0 20 -7 24 -15z m126 0 c0 -9 -9 -15 -25 -15 -26 0 -34 15 -12 23 23 10 37 7 37 -8z m148 -2 c2 -9 -7 -13 -27 -13 -30 0 -39 9 -24 24 11 10 46 3 51 -11z m246 11 c25 -9 19 -24 -9 -24 -24 0 -32 10 -18 23 8 8 8 8 27 1z m-114 -14 c0 -5 -13 -10 -30 -10 -16 0 -30 5 -30 10 0 6 14 10 30 10 17 0 30 -4 30 -10z m280 -183 c0 -73 -19 -97 -76 -97 -40 0 -44 2 -44 24 0 14 4 27 9 30 4 3 6 17 3 31 -6 33 10 50 49 53 18 2 35 5 38 7 14 15 21 -1 21 -48z m-916 21 c3 -13 8 -44 11 -70 l6 -48 -38 0 c-78 0 -83 5 -83 76 l0 64 50 0 c43 0 50 -3 54 -22z m366 -32 c0 -25 -4 -48 -10 -51 -6 -4 -10 13 -10 44 0 28 5 51 10 51 6 0 10 -20 10 -44z m-30 -97 c6 -11 9 -28 7 -37 -4 -14 -6 -13 -12 6 -7 22 -25 31 -25 12 0 -6 -8 -5 -20 2 -26 17 -25 26 3 31 12 2 25 5 29 6 4 0 12 -8 18 -20z m447 -10 c1 -13 0 -18 -3 -11 -3 6 -12 12 -20 12 -15 0 -19 12 -7 24 12 12 28 0 30 -25z m-707 -142 c0 -22 -4 -36 -10 -32 -13 8 -24 71 -15 85 12 19 25 -9 25 -53z m369 -4 c1 -39 -8 -65 -20 -57 -11 6 -12 107 -2 118 10 10 21 -22 22 -61z m361 52 c0 -25 -28 -85 -39 -85 -7 0 -7 8 -1 23 5 12 11 34 14 50 7 29 26 38 26 12z m-526 -11 c9 -24 7 -94 -3 -94 -11 0 -21 36 -21 78 0 34 14 43 24 16z m-134 -16 c0 -13 3 -34 6 -48 l6 -25 -21 24 c-25 27 -28 71 -6 71 9 0 15 -9 15 -22z m440 -12 c0 -40 -8 -66 -21 -66 -10 0 -12 83 -2 93 15 15 23 5 23 -27z m118 -8 c-2 -31 -8 -44 -20 -46 -15 -3 -17 2 -12 30 9 49 12 58 24 58 7 0 10 -17 8 -42z"/> <path d="M480 2050 c-42 -3 -59 -8 -47 -12 13 -6 16 -14 12 -28 -6 -20 -2 -20 358 -20 l365 0 -5 21 c-3 12 0 25 7 29 28 17 -496 25 -690 10z"/> <path d="M1300 2366 c0 -8 15 -38 33 -67 l32 -52 2 -761 c3 -851 10 -770 -69 -830 -28 -21 -41 -41 -52 -80 -17 -58 -45 -93 -81 -102 l-25 -6 0 -144 c0 -120 -3 -146 -15 -150 -8 -4 -22 -1 -29 5 -11 10 -17 8 -25 -6 -16 -29 -21 -1 -23 147 -3 130 -4 135 -25 138 -21 3 -22 1 -21 -126 0 -71 -3 -140 -7 -153 -7 -21 -9 -21 -20 -6 -11 16 -13 16 -19 2 -3 -9 -10 -13 -16 -10 -6 4 -10 63 -10 146 l0 139 -45 0 -45 0 -1 -87 c-1 -94 -7 -185 -14 -191 -2 -2 -8 -1 -14 3 -7 4 -11 56 -11 139 l0 133 -50 2 -50 1 0 -98 c0 -113 -9 -192 -21 -192 -5 0 -9 8 -9 18 -1 15 -2 15 -15 -2 -13 -17 -15 -17 -21 -3 -3 9 -6 76 -7 149 l-2 133 -33 3 -32 3 0 -144 c0 -79 -3 -147 -7 -150 -3 -4 -12 1 -19 11 -10 12 -13 13 -14 3 0 -7 -6 -11 -15 -7 -8 3 -15 1 -15 -5 0 -6 -4 -7 -10 -4 -6 4 -10 66 -10 155 0 148 0 148 -24 154 -31 8 -86 71 -86 99 0 34 -37 88 -55 81 -19 -8 -19 -14 5 -44 11 -14 20 -33 20 -43 0 -10 7 -20 15 -23 12 -5 13 -10 4 -20 -9 -11 -8 -14 2 -14 8 0 26 -10 40 -23 l26 -22 -4 -135 -5 -135 30 -35 c28 -33 33 -35 88 -33 32 1 60 6 62 12 2 5 15 3 30 -5 33 -17 66 -18 84 -1 43 40 47 41 74 17 24 -23 54 -35 54 -22 0 4 14 13 31 21 26 11 32 11 49 -4 27 -25 217 -30 245 -7 34 28 51 89 48 177 -3 110 2 135 37 172 17 18 30 39 30 47 0 9 5 16 11 16 6 0 9 9 6 19 -3 13 12 37 48 78 61 67 76 118 69 238 -3 39 -6 358 -7 710 l-3 640 -23 49 c-13 26 -31 51 -41 53 -10 3 -16 11 -14 18 3 7 1 16 -5 20 -6 3 -11 -1 -11 -9z m-540 -2061 c0 -57 -4 -95 -10 -95 -6 0 -10 38 -10 95 0 57 4 95 10 95 6 0 10 -38 10 -95z m127 -52 c-2 -27 -3 -5 -3 47 0 52 1 74 3 48 2 -27 2 -69 0 -95z"/> <path d="M295 2359 c4 -6 -1 -13 -11 -15 -21 -6 -54 -68 -58 -109 -1 -14 -6 -28 -9 -32 -4 -3 -7 -332 -7 -730 0 -783 -1 -766 53 -794 20 -11 20 -10 -6 24 l-27 36 1 648 c0 356 4 699 8 760 7 105 9 116 39 158 33 48 39 65 21 65 -5 0 -7 -5 -4 -11z"/> <path d="M839 880 c-1 -3 0 -45 1 -95 1 -68 5 -92 18 -101 13 -9 20 -6 39 16 20 24 23 39 23 107 l0 78 -40 0 c-22 0 -40 -2 -41 -5z"/> <path d="M1070 792 c0 -40 4 -61 10 -57 13 8 13 85 0 105 -7 11 -10 -4 -10 -48z"/> <path d="M526 403 c-9 -23 -5 -168 5 -185 5 -7 9 31 9 95 0 59 -2 107 -4 107 -2 0 -7 -8 -10 -17z"/> <path d="M1084 310 c0 -63 1 -89 3 -57 2 31 2 83 0 115 -2 31 -3 5 -3 -58z"/> <path d="M664 315 c0 -55 1 -76 3 -47 2 29 2 74 0 100 -2 26 -3 2 -3 -53z"/> <path d="M964 310 c0 -52 1 -74 3 -47 2 26 2 68 0 95 -2 26 -3 4 -3 -48z"/> </g> </svg> 