<svg xmlns="http://www.w3.org/2000/svg" version="1.1" xmlns:xlink="http://www.w3.org/1999/xlink" xmlns:svgjs="http://svgjs.dev/svgjs" width="1000" height="1000" viewBox="0 0 1000 1000"><rect width="1000" height="1000" fill="#ffffff"></rect><g transform="matrix(0.7,0,0,0.7,149.57575757575756,282.1265587044535)"><svg viewBox="0 0 396 247" data-background-color="#755bb4" preserveAspectRatio="xMidYMid meet" height="623" width="1000" xmlns="http://www.w3.org/2000/svg" xmlns:xlink="http://www.w3.org/1999/xlink"><g id="tight-bounds" transform="matrix(1,0,0,1,0.2400000000000091,-0.09999999999999432)"><svg viewBox="0 0 395.52 247.2" height="247.2" width="395.52"><g><svg></svg></g><g><svg viewBox="0 0 395.52 247.2" height="247.2" width="395.52"><g transform="matrix(1,0,0,1,75.54432,107.65598328996613)"><svg viewBox="0 0 244.43135999999998 31.88803342006772" height="31.88803342006772" width="244.43135999999998"><g><svg viewBox="0 0 244.43135999999998 31.88803342006772" height="31.88803342006772" width="244.43135999999998"><g><svg viewBox="0 0 244.43135999999998 31.88803342006772" height="31.88803342006772" width="244.43135999999998"><g id="textblocktransform"><svg viewBox="0 0 244.43135999999998 31.88803342006772" height="31.88803342006772" width="244.43135999999998" id="textblock"><g><svg viewBox="0 0 244.43135999999998 31.88803342006772" height="31.88803342006772" width="244.43135999999998"><g transform="matrix(1,0,0,1,0,0)"><svg width="244.43135999999998" viewBox="1.4500000476837158 -36 280.5299987792969 36.599998474121094" height="31.88803342006772" data-palette-color="#ffffff"><path d="M16.1 0L11.9 0 11.9-31.55 1.45-31.55 1.45-35 26.55-35 26.55-31.55 16.1-31.55 16.1 0ZM38.1 0.6L38.1 0.6Q34.55 0.6 31.8-1.03 29.05-2.65 27.47-5.55 25.9-8.45 25.9-12.4L25.9-12.4Q25.9-16.3 27.45-19.23 29-22.15 31.77-23.78 34.55-25.4 38.2-25.4L38.2-25.4Q41.8-25.4 44.42-23.78 47.05-22.15 48.45-19.5 49.85-16.85 49.85-13.8L49.85-13.8Q49.85-13.25 49.82-12.7 49.8-12.15 49.8-11.45L49.8-11.45 30.05-11.45Q30.2-8.6 31.37-6.73 32.55-4.85 34.32-3.9 36.1-2.95 38.1-2.95L38.1-2.95Q40.7-2.95 42.45-4.15 44.2-5.35 45-7.4L45-7.4 49.15-7.4Q48.15-3.95 45.32-1.68 42.5 0.6 38.1 0.6ZM38.1-21.85L38.1-21.85Q35.1-21.85 32.77-20.03 30.45-18.2 30.1-14.7L30.1-14.7 45.7-14.7Q45.55-18.05 43.4-19.95 41.25-21.85 38.1-21.85ZM63.65 0.6L63.65 0.6Q60.55 0.6 58.5-0.45 56.45-1.5 55.45-3.25 54.45-5 54.45-7.05L54.45-7.05Q54.45-10.85 57.35-12.9 60.25-14.95 65.25-14.95L65.25-14.95 71.95-14.95 71.95-15.25Q71.95-18.5 70.25-20.18 68.55-21.85 65.7-21.85L65.7-21.85Q63.25-21.85 61.47-20.63 59.7-19.4 59.25-17.05L59.25-17.05 54.95-17.05Q55.2-19.75 56.77-21.6 58.35-23.45 60.7-24.43 63.05-25.4 65.7-25.4L65.7-25.4Q70.9-25.4 73.52-22.63 76.15-19.85 76.15-15.25L76.15-15.25 76.15 0 72.4 0 72.15-4.45Q71.1-2.35 69.07-0.88 67.05 0.6 63.65 0.6ZM64.3-2.95L64.3-2.95Q66.7-2.95 68.42-4.2 70.15-5.45 71.05-7.45 71.95-9.45 71.95-11.65L71.95-11.65 71.95-11.7 65.6-11.7Q61.9-11.7 60.37-10.43 58.85-9.15 58.85-7.25L58.85-7.25Q58.85-5.3 60.27-4.13 61.7-2.95 64.3-2.95ZM93.84 0.6L93.84 0.6Q90.29 0.6 87.47-1.03 84.64-2.65 83.02-5.58 81.39-8.5 81.39-12.4L81.39-12.4Q81.39-16.3 83.02-19.23 84.64-22.15 87.47-23.78 90.29-25.4 93.84-25.4L93.84-25.4Q98.24-25.4 101.27-23.1 104.29-20.8 105.09-16.95L105.09-16.95 100.79-16.95Q100.29-19.25 98.34-20.53 96.39-21.8 93.79-21.8L93.79-21.8Q91.69-21.8 89.84-20.75 87.99-19.7 86.84-17.6 85.69-15.5 85.69-12.4L85.69-12.4Q85.69-9.3 86.84-7.2 87.99-5.1 89.84-4.03 91.69-2.95 93.79-2.95L93.79-2.95Q96.39-2.95 98.34-4.23 100.29-5.5 100.79-7.85L100.79-7.85 105.09-7.85Q104.34-4.1 101.29-1.75 98.24 0.6 93.84 0.6ZM115.14 0L110.94 0 110.94-36 115.14-36 115.14-20.55Q116.39-22.85 118.69-24.13 120.99-25.4 123.69-25.4L123.69-25.4Q127.99-25.4 130.59-22.73 133.19-20.05 133.19-14.5L133.19-14.5 133.19 0 129.04 0 129.04-14.05Q129.04-21.8 122.79-21.8L122.79-21.8Q119.54-21.8 117.34-19.48 115.14-17.15 115.14-12.85L115.14-12.85 115.14 0ZM143.99 0L139.79 0 139.79-35 144.69-35 157.29-10.6 169.79-35 174.74-35 174.74 0 170.54 0 170.54-27.5 158.84-5 155.69-5 143.99-27.45 143.99 0ZM193.03 0.6L193.03 0.6Q189.49 0.6 186.74-1.03 183.99-2.65 182.41-5.55 180.84-8.45 180.84-12.4L180.84-12.4Q180.84-16.3 182.38-19.23 183.94-22.15 186.71-23.78 189.49-25.4 193.13-25.4L193.13-25.4Q196.74-25.4 199.36-23.78 201.99-22.15 203.38-19.5 204.78-16.85 204.78-13.8L204.78-13.8Q204.78-13.25 204.76-12.7 204.74-12.15 204.74-11.45L204.74-11.45 184.99-11.45Q185.13-8.6 186.31-6.73 187.49-4.85 189.26-3.9 191.03-2.95 193.03-2.95L193.03-2.95Q195.63-2.95 197.38-4.15 199.13-5.35 199.94-7.4L199.94-7.4 204.09-7.4Q203.09-3.95 200.26-1.68 197.44 0.6 193.03 0.6ZM193.03-21.85L193.03-21.85Q190.03-21.85 187.71-20.03 185.38-18.2 185.03-14.7L185.03-14.7 200.63-14.7Q200.49-18.05 198.34-19.95 196.19-21.85 193.03-21.85ZM222.98 0L218.78 0 218.78-31.55 208.33-31.55 208.33-35 233.43-35 233.43-31.55 222.98-31.55 222.98 0ZM250.48 0L245.78 0.05 236.18-35 240.68-35 248.23-4.95 256.83-35 261.48-35 269.83-4.95 277.48-35 281.98-35 272.18 0 267.38 0 259.03-28.9 250.48 0Z" opacity="1" transform="matrix(1,0,0,1,0,0)" fill="#000000" class="undefined-text-0" data-fill-palette-color="primary" id="text-0"></path></svg></g></svg></g></svg></g></svg></g></svg></g></svg></g><path d="M177.245 101.656L177.245 37.863 5.771 37.863 5.771 209.337 177.245 209.337 177.245 145.544 174.369 145.544 174.369 206.461 8.647 206.461 8.647 40.739 174.369 40.739 174.369 101.656Z" fill="#000000" stroke="transparent" data-fill-palette-color="primary"></path></svg></g><defs></defs></svg><rect width="395.52" height="247.2" fill="none" stroke="none" visibility="hidden"></rect></g></svg></g></svg>